<svg width="18" height="8" fill="none" xmlns="http://www.w3.org/2000/svg"><g clip-path="url(#clip0)" fill="#fff"><path d="M4.17 8L2.109 2.282 1.726 1.14h-.03l.03 1.227v5.618H0V0h2.903l1.696 4.65.382 1.415h.03l.382-1.415L7.073 0h2.903v8H8.25V2.383l.03-1.228h-.03l-.382 1.141L5.806 8H4.17zM14.376 0c1.65 0 2.811.635 2.811 1.978 0 1.199-.779 1.675-1.375 1.834v.03c1.085.158 1.773.909 1.773 1.905 0 .997-.611 2.253-3.331 2.253h-2.658V0h2.78zm-1.054 3.25h.84c1.116 0 1.314-.636 1.314-.997 0-.231-.06-.997-1.39-.997h-.764V3.25zm0 3.494h.963c1.069 0 1.512-.549 1.512-1.127 0-.577-.32-1.126-1.512-1.126h-.963v2.253z"/></g><defs><clipPath id="clip0"><path fill="#fff" d="M0 0h17.6v8H0z"/></clipPath></defs></svg>